<svg id="Lager_1" xmlns="http://www.w3.org/2000/svg" viewBox="0 0 595.3 176"><style>.st0{fill:#fff}.st1{fill:url(#SVGID_1_)}.st2{fill:url(#SVGID_2_)}</style><path class="st0" d="M234.3 109V92c0-3.4.9-4.3 4.3-4.3h4.5c3.4 0 4.3.9 4.3 4.3v47.7c0 3.4-.9 4.3-4.3 4.3h-4.5c-3.4 0-4.3-.9-4.3-4.3v-19.1h-19.5v19.1c0 3.4-.8 4.3-4.3 4.3H206c-3.4 0-4.3-.9-4.3-4.3V91.9c0-3.4.9-4.3 4.3-4.3h4.5c3.5 0 4.3.9 4.3 4.3v17h19.5zm71.7 12c0 15.3-8.4 23.7-23.5 23.7S259 136.3 259 121V91.9c0-3.4.9-4.3 4.3-4.3h4.5c3.4 0 4.3.9 4.3 4.3v29.2c0 9.7 5.7 12.1 10.5 12.1 4.7 0 10.5-2.3 10.5-12.1V91.9c0-3.4.8-4.3 4.3-4.3h4.5c3.4 0 4.3.9 4.3 4.3V121zm79.4 18.7c0 3.4-.9 4.3-4.3 4.3h-4.3c-3.4 0-4.3-.9-4.3-4.3v-30.5c0-6.6-1.8-9.9-7.4-9.9-5.7 0-7.7 3.4-7.7 9.9v30.5c0 3.4-.8 4.3-4.3 4.3H349c-3.4 0-4.3-.9-4.3-4.3v-30.5c0-7.2-1.8-9.9-7.5-9.9-5.8 0-7.5 2.8-7.5 9.9v30.5c0 3.4-.8 4.3-4.3 4.3h-4.3c-3.5 0-4.3-.9-4.3-4.3v-31.1c0-16.2 7.3-21.3 18.1-21.3 6.7 0 12.5 1.4 16 7.1 3.6-5.7 9.4-7.1 16.1-7.1 11 0 18.2 6.1 18.2 21.3v31.1zm60.1 0c0 3.4-.9 4.3-4.3 4.3h-4.4c-3.3 0-4.2-.9-4.2-4.3v-10.6h-23v10.6c0 3.4-.9 4.3-4.3 4.3H401c-3.5 0-4.3-.9-4.3-4.3v-28.1c0-15.7 8.7-24.3 24.2-24.3 15.8 0 24.5 8.5 24.5 24.3v28.1zm-35.8-22h23v-6.2c0-10.4-6-12.8-11.7-12.8-5.5 0-11.3 2.4-11.3 12.8v6.2zm93.9 22c0 3.4-.8 4.3-4.3 4.3H495c-3.4 0-4.3-.9-4.3-4.3v-27.9c0-6.5-1.9-13-10.6-13-8.9 0-10.8 6.5-10.8 13v27.9c0 3.4-.9 4.3-4.3 4.3h-4.4c-3.4 0-4.3-.9-4.3-4.3v-27.8c0-15.6 8.4-24.6 23.7-24.6 15.2 0 23.5 9 23.5 24.6v27.8zm38.9 0c0 3.4-.8 4.3-4.3 4.3h-4.5c-3.4 0-4.3-.9-4.3-4.3V91.9c0-3.4.9-4.3 4.3-4.3h4.5c3.5 0 4.3.9 4.3 4.3v47.8zm34.1 0c0 3.4-.9 4.3-4.3 4.3h-4.2c-3.5 0-4.3-.9-4.3-4.3V98.3h-10.4c-3.4 0-4.3-.9-4.3-4.3v-2c0-3.4.9-4.3 4.3-4.3H587c3.4 0 4.3.9 4.3 4.3v2c0 3.5-.9 4.3-4.3 4.3h-10.4v41.4z"/><linearGradient id="SVGID_1_" gradientUnits="userSpaceOnUse" x1="90.066" y1="170.147" x2="90.066" y2="50.143"><stop offset="0" stop-color="#007a60"/><stop offset="1" stop-color="#3fae2a"/></linearGradient><path class="st1" d="M142.5 23l-30.8 31.2v33.7H68V54.8L38.3 23h-35v32.5s63.1 117.9 66.2 117.1c3.1-.8 0-55.9 0-55.9h39.3s-1.9 54.5 0 55.9c1.9 1.4 68.1-118.4 68.1-118.4l-.2-31.2h-34.2z"/><linearGradient id="SVGID_2_" gradientUnits="userSpaceOnUse" x1="88.861" y1="170.143" x2="88.861" y2="50.143"><stop offset="0" stop-color="#007a60"/><stop offset="1" stop-color="#3fae2a"/></linearGradient><path class="st2" d="M108 22.2c0 10.5-8.6 19.1-19.1 19.1-10.6 0-19.1-8.6-19.1-19.1 0-10.5 8.5-19.1 19.1-19.1 10.5 0 19.1 8.6 19.1 19.1z"/></svg>