<svg id="Layer_1" data-name="Layer 1" xmlns="http://www.w3.org/2000/svg" viewBox="0 0 180 57.86"><defs><style>.cls-1{fill:#fff;}.cls-2{fill:#db212f;}.cls-3{fill:#ea2227;}</style></defs><title>openshift</title><g id="Layer_2" data-name="Layer 2"><g id="Layer_1-2" data-name="Layer 1-2"><g id="Layer_6" data-name="Layer 6"><path class="cls-1" d="M5.12,6.77a2.4,2.4,0,0,1-1.69.52H.92v-7H3.48A2.79,2.79,0,0,1,4.24.4a1.72,1.72,0,0,1,.6.31,1.56,1.56,0,0,1,.4.55A2.11,2.11,0,0,1,5.38,2,1.39,1.39,0,0,1,5.1,3a1.55,1.55,0,0,1-.73.5,2.53,2.53,0,0,1,.48.19A1.48,1.48,0,0,1,5.28,4a1.66,1.66,0,0,1,.31.51,1.81,1.81,0,0,1,.12.73A1.92,1.92,0,0,1,5.12,6.77Zm-.8-5.48A1.2,1.2,0,0,0,3.45,1H1.7V3.17H3.39a1.22,1.22,0,0,0,.93-.32,1.12,1.12,0,0,0,.28-.78A1.1,1.1,0,0,0,4.32,1.29Zm.21,3a1.6,1.6,0,0,0-1.09-.36H1.7v2.7H3.48A1.46,1.46,0,0,0,4.6,6.22a1.37,1.37,0,0,0,.33-1,1.28,1.28,0,0,0-.4-1Z" transform="translate(0 0)"/><path class="cls-1" d="M10.27,7.29V6.65a1.79,1.79,0,0,1-.59.54,1.61,1.61,0,0,1-.86.21,2.17,2.17,0,0,1-.76-.13,1.42,1.42,0,0,1-.58-.39,1.7,1.7,0,0,1-.37-.67,3.06,3.06,0,0,1-.13-1V2h.76V5.12A2.07,2.07,0,0,0,8,6.36a1.08,1.08,0,0,0,.93.4,1.22,1.22,0,0,0,.93-.39,1.82,1.82,0,0,0,.37-1.25V2H11V7.29Z" transform="translate(0 0)"/><path class="cls-1" d="M13.49,1a.51.51,0,0,1-.37.15A.58.58,0,0,1,12.73,1a.55.55,0,0,1-.16-.38.55.55,0,0,1,.16-.39A.55.55,0,0,1,13.12,0a.51.51,0,0,1,.37.15.58.58,0,0,1,.15.39A.52.52,0,0,1,13.49,1Zm-.76,6.34V2h.76V7.29Z" transform="translate(0 0)"/><path class="cls-1" d="M15.24,7.29V.42L16,0V7.29Z" transform="translate(0 0)"/><path class="cls-1" d="M18.67,2.68V6.09a.84.84,0,0,0,.11.49.54.54,0,0,0,.42.14,2.54,2.54,0,0,0,.39,0l.35-.12-.05.65a2.59,2.59,0,0,1-.45.14,2.26,2.26,0,0,1-.52,0,1,1,0,0,1-.75-.26,1.35,1.35,0,0,1-.26-.93V2.68h-.65V2h.65V.42L18.67,0V2H20v.64Z" transform="translate(0 0)"/><path class="cls-1" d="M28.12,5.82a2.38,2.38,0,0,1-.49.86,2,2,0,0,1-.73.54,2.3,2.3,0,0,1-.9.18,2.52,2.52,0,0,1-.9-.17,2.14,2.14,0,0,1-.71-.52,2.49,2.49,0,0,1-.47-.86,3.38,3.38,0,0,1-.18-1.18,3.38,3.38,0,0,1,.18-1.18,2.42,2.42,0,0,1,.49-.85,2,2,0,0,1,.73-.53,2.3,2.3,0,0,1,.9-.18,2.47,2.47,0,0,1,.89.17,1.76,1.76,0,0,1,.72.51,2.53,2.53,0,0,1,.47.85,3.33,3.33,0,0,1,.18,1.17A3.44,3.44,0,0,1,28.12,5.82Zm-1-2.73a1.43,1.43,0,0,0-2-.2,1.89,1.89,0,0,0-.2.2,2.47,2.47,0,0,0-.41,1.56,2.59,2.59,0,0,0,.41,1.58,1.42,1.42,0,0,0,2,.21,1,1,0,0,0,.21-.21,2.53,2.53,0,0,0,.42-1.58A2.48,2.48,0,0,0,27.12,3.09Z" transform="translate(0 0)"/><path class="cls-1" d="M33,7.29V4.21A2.07,2.07,0,0,0,32.67,3a1.08,1.08,0,0,0-.93-.4,1.22,1.22,0,0,0-.93.39,1.82,1.82,0,0,0-.37,1.25V7.29h-.76V2h.76v.64a1.92,1.92,0,0,1,.56-.5,1.61,1.61,0,0,1,.86-.21,2.42,2.42,0,0,1,.76.12,1.53,1.53,0,0,1,.58.39,1.92,1.92,0,0,1,.37.67,3.06,3.06,0,0,1,.13,1v3.2Z" transform="translate(0 0)"/></g><g id="Layer_5" data-name="Layer 5"><path class="cls-2" d="M8.33,33.49,3.72,35.17a13.42,13.42,0,0,0,.37,2.18l4.37-1.59a8.64,8.64,0,0,1-.13-2.27" transform="translate(0 0)"/><path class="cls-2" d="M28.68,28.4a12.57,12.57,0,0,0-1.12-1.91L23,28.17A8.15,8.15,0,0,1,24.31,30Z" transform="translate(0 0)"/><path class="cls-2" d="M18.55,27.09A8.71,8.71,0,0,1,21,28.86l4.6-1.67a13,13,0,0,0-5.14-4.28A13.18,13.18,0,0,0,3,29.28a12.86,12.86,0,0,0-1.19,6.58l4.6-1.67a8.54,8.54,0,0,1,9.15-7.88,8.38,8.38,0,0,1,3,.78" transform="translate(0 0)"/><path class="cls-3" d="M4.38,37.24,0,38.84a13.1,13.1,0,0,0,2.06,4.45l4.59-1.67a8.54,8.54,0,0,1-2.27-4.38" transform="translate(0 0)"/><path class="cls-2" d="M23.46,35.51a8.42,8.42,0,0,1-.77,3A8.55,8.55,0,0,1,8.82,40.83L4.23,42.51a13.16,13.16,0,0,0,22.64-2.1,13,13,0,0,0,1.18-6.58Z" transform="translate(0 0)"/><path class="cls-3" d="M24.59,29.88l-4.37,1.6a8.62,8.62,0,0,1,1.07,4.82l4.59-1.68a13.27,13.27,0,0,0-1.29-4.74" transform="translate(0 0)"/><path class="cls-1" d="M55.12,34.82a10.64,10.64,0,0,0-.54-3.54,7.3,7.3,0,0,0-1.48-2.65A6.13,6.13,0,0,0,50.83,27a7.1,7.1,0,0,0-2.91-.58A7.32,7.32,0,0,0,45,27a6.51,6.51,0,0,0-2.3,1.69,7.74,7.74,0,0,0-1.5,2.65,12.72,12.72,0,0,0,0,7.13,8,8,0,0,0,1.48,2.65A6.73,6.73,0,0,0,45,42.79a7.66,7.66,0,0,0,2.95.56,7.2,7.2,0,0,0,2.93-.58,6.81,6.81,0,0,0,2.3-1.67,7.62,7.62,0,0,0,1.48-2.67,10.82,10.82,0,0,0,.54-3.57Zm-3.38,0a6.1,6.1,0,0,1-1.05,3.84A3.31,3.31,0,0,1,47.92,40a3.44,3.44,0,0,1-2.82-1.36A6.11,6.11,0,0,1,44,34.82,6.3,6.3,0,0,1,45,31a3.6,3.6,0,0,1,5.61,0,6.05,6.05,0,0,1,1.08,3.87Z" transform="translate(0 0)"/><path class="cls-1" d="M72.32,31.84a5.21,5.21,0,0,0-.45-2.27,4.61,4.61,0,0,0-1.22-1.65,4.81,4.81,0,0,0-1.81-1,7.34,7.34,0,0,0-2.18-.33H59.48V43.05h3.29V37.24h3.61a8.48,8.48,0,0,0,2.35-.31,5.11,5.11,0,0,0,1.9-1,4.5,4.5,0,0,0,1.24-1.66,6.12,6.12,0,0,0,.45-2.47Zm-3.38.07c0,1.43-.79,2.14-2.35,2.14H62.77V29.82h3.77a2.65,2.65,0,0,1,1.74.52A1.84,1.84,0,0,1,68.94,31.91Z" transform="translate(0 0)"/><polygon class="cls-1" points="88.24 43.05 88.24 39.84 79.78 39.84 79.78 35.88 84.49 35.88 84.49 32.69 79.78 32.69 79.78 29.85 87.89 29.85 87.89 26.63 76.49 26.63 76.49 43.05 88.24 43.05"/><path class="cls-1" d="M106.1,43.05V26.63h-3.24V37.17a7.31,7.31,0,0,0-.52-.84c-.22-.36-.43-.7-.63-1l-5.82-8.68H92.8v16.4H96V32.26a9.09,9.09,0,0,0,.49.86l.66,1,6,9Z" transform="translate(0 0)"/><path class="cls-1" d="M121.51,38.74a5.2,5.2,0,0,0-.23-1.62,3.54,3.54,0,0,0-.8-1.29A5.63,5.63,0,0,0,119,34.75a17.12,17.12,0,0,0-2.28-1,20.47,20.47,0,0,1-2-.82,5.54,5.54,0,0,1-1.17-.75,2,2,0,0,1-.56-.8,2.92,2.92,0,0,1-.15-.93,2.63,2.63,0,0,1,.17-.92,1.94,1.94,0,0,1,.56-.77,2.82,2.82,0,0,1,1-.52A4.53,4.53,0,0,1,116,28a5.18,5.18,0,0,1,2.13.4A7,7,0,0,1,120,29.56l1.17-1.43A8.83,8.83,0,0,0,119,26.84a7.58,7.58,0,0,0-2.79-.47,7.94,7.94,0,0,0-2.11.28,4.58,4.58,0,0,0-1.62.85,3.79,3.79,0,0,0-1.4,3.07,4.67,4.67,0,0,0,.23,1.57,3.66,3.66,0,0,0,.8,1.25,7.2,7.2,0,0,0,1.45,1,18.56,18.56,0,0,0,2.26.94,14,14,0,0,1,1.87.79,5.62,5.62,0,0,1,1.2.78,2.17,2.17,0,0,1,.66.87,2.85,2.85,0,0,1,.18,1,2.48,2.48,0,0,1-1,2.06,4,4,0,0,1-2.58.75,5.15,5.15,0,0,1-2.34-.54,7.86,7.86,0,0,1-2-1.43L110.56,41A8.24,8.24,0,0,0,113,42.68a7.6,7.6,0,0,0,3.12.63,7.17,7.17,0,0,0,2.3-.35,5.34,5.34,0,0,0,1.71-1,4,4,0,0,0,1.06-1.46,4.3,4.3,0,0,0,.37-1.8Z" transform="translate(0 0)"/><polygon class="cls-1" points="138.19 43.05 138.19 26.63 136.36 26.63 136.36 33.65 128.2 33.65 128.2 26.63 126.37 26.63 126.37 43.05 128.2 43.05 128.2 35.31 136.36 35.31 136.36 43.05 138.19 43.05"/><rect class="cls-1" x="143.68" y="26.63" width="1.83" height="16.42"/><polygon class="cls-1" points="160.64 28.3 160.64 26.63 151 26.63 151 43.05 152.83 43.05 152.83 35.41 157.33 35.41 157.33 33.74 152.83 33.74 152.83 28.3 160.64 28.3"/><polygon class="cls-1" points="175.4 28.3 175.4 26.63 163.9 26.63 163.9 28.3 168.74 28.3 168.74 43.05 170.57 43.05 170.57 28.3 175.4 28.3"/><path class="cls-1" d="M85.86,56.05a1.94,1.94,0,0,1-.89.21c-.65,0-1-.4-1-1.23V52.34H83.3V51.5H84V50.17l.9-.48V51.5H86v.84H84.82v2.53c0,.43.14.56.48.56a1.41,1.41,0,0,0,.67-.19Zm-4.31-1.87A2.18,2.18,0,0,0,80.48,54c-.58,0-1,.27-1,.7s.29.77.89.77a1.44,1.44,0,0,0,1.13-.6v-.66Zm0,2V55.7a1.84,1.84,0,0,1-1.28.56,1.49,1.49,0,0,1-1.61-1.36v-.21c0-1,.8-1.51,1.85-1.51a2.46,2.46,0,0,1,1,.18V53c0-.5-.31-.79-.88-.79a2.35,2.35,0,0,0-1.22.3l-.35-.7a2.91,2.91,0,0,1,1.6-.42A1.54,1.54,0,0,1,82.41,53v3.19h-.9Zm-5,0v-2.8H73.73v2.79H72.8V50h.93v2.51h2.85V50h.94v6.22Zm-8.32-3.31a1.54,1.54,0,0,0-1.09-.61c-.66,0-1,.5-1,1.48,0,1.18.37,1.69,1,1.69a1.4,1.4,0,0,0,1-.6v-2Zm0,3.31v-.45a1.74,1.74,0,0,1-1.21.54c-1,0-1.8-.72-1.8-2.5,0-1.6.88-2.35,1.84-2.35a1.62,1.62,0,0,1,1.17.53V50.16l.91-.47v6.48Zm-5.84-3.94c-.61,0-1,.43-1.06,1.17h2.16a1.06,1.06,0,0,0-1.1-1.17m2,1.93H61.33c.1.9.6,1.28,1.17,1.28a1.64,1.64,0,0,0,1-.37l.55.58A2.14,2.14,0,0,1,60.42,54s0-.11,0-.16c0-1.58.84-2.43,2-2.43a2.16,2.16,0,0,1,2,2.33v.42M57.7,50.83H55.88v2H57.7a.93.93,0,0,0,1-.85v-.15a1,1,0,0,0-1-1m.63,2.8,1.27,2.54H58.53l-1.24-2.46h-1.4v2.46H55V50h2.7a1.8,1.8,0,0,1,2,1.59,2.44,2.44,0,0,1,0,.27,1.76,1.76,0,0,1-1.37,1.82m-8.95,4.18h-1l.67-1.73-1.71-4.57h1l.77,2.28c.14.41.35,1.1.41,1.36.08-.28.27-.94.42-1.35l.78-2.29h1ZM44.94,52.3a1.43,1.43,0,0,0-1,.59v2A1.54,1.54,0,0,0,45,55.5c.66,0,1-.5,1-1.48,0-1.18-.37-1.69-1.05-1.69m.13,4a1.62,1.62,0,0,1-1.17-.53v.44H43v-6l.91-.48V52a1.78,1.78,0,0,1,1.21-.54c1,0,1.8.73,1.8,2.5,0,1.6-.87,2.35-1.84,2.35" transform="translate(0 0)"/><path class="cls-1" d="M88,50.53a.13.13,0,0,0-.12,0h-.23v.29h.22c.12,0,.17,0,.17-.15a.17.17,0,0,0,0-.1m.1.26a.42.42,0,0,1-.14.09l.19.36h-.13l-.19-.35h-.18v.35h-.11v-.85h.34a.36.36,0,0,1,.2.06.23.23,0,0,1,.08.18.23.23,0,0,1-.06.16m.33-.23a.64.64,0,0,0-.35-.35.58.58,0,0,0-.26,0,.65.65,0,0,0-.27,0,.64.64,0,0,0-.35.35.72.72,0,0,0,0,.54.64.64,0,0,0,.35.35.61.61,0,0,0,.27,0,.57.57,0,0,0,.26,0,.6.6,0,0,0,.21-.14.49.49,0,0,0,.14-.21.72.72,0,0,0,0-.54m.1.58a.82.82,0,0,1-.16.25.64.64,0,0,1-.25.15.77.77,0,0,1-.3.06.81.81,0,0,1-.31-.06.75.75,0,0,1-.24-.15.82.82,0,0,1,0-1.12.61.61,0,0,1,.24-.15.81.81,0,0,1,.31-.06.77.77,0,0,1,.3.06.64.64,0,0,1,.25.15.83.83,0,0,1,.16.87" transform="translate(0 0)"/><path class="cls-1" d="M179.11,27.05a.31.31,0,0,0-.19-.06h-.34v.45h.32c.18,0,.27-.08.27-.23a.23.23,0,0,0-.06-.16m.16.41a.48.48,0,0,1-.22.12l.29.56h-.21l-.27-.54h-.28v.54h-.17v-1.3h.52a.44.44,0,0,1,.29.09.31.31,0,0,1,.13.28.44.44,0,0,1-.08.25m.49-.36a.9.9,0,0,0-.54-.54,1.09,1.09,0,0,0-.4-.07,1,1,0,0,0-.39.07,1,1,0,0,0-.32.21.83.83,0,0,0-.22.33,1.15,1.15,0,0,0-.08.41,1.2,1.2,0,0,0,.08.42.87.87,0,0,0,.22.32,1,1,0,0,0,.32.21,1,1,0,0,0,.39.07,1.09,1.09,0,0,0,.4-.07,1,1,0,0,0,.33-.21,1,1,0,0,0,.21-.32,1.2,1.2,0,0,0,.08-.42,1.15,1.15,0,0,0-.08-.41m.15.89a1.12,1.12,0,0,1-.24.37,1,1,0,0,1-.38.24,1.21,1.21,0,0,1-.46.08,1.26,1.26,0,0,1-.47-.08,1.12,1.12,0,0,1-.37-.24.91.91,0,0,1-.24-.37,1.12,1.12,0,0,1-.1-.48,1.22,1.22,0,0,1,.34-.85,1.31,1.31,0,0,1,.37-.24,1.5,1.5,0,0,1,.47-.08,1.44,1.44,0,0,1,.46.08,1.36,1.36,0,0,1,.38.24,1.28,1.28,0,0,1,.24,1.33" transform="translate(0 0)"/></g></g></g></svg>